<?xml version="1.0" encoding="UTF-8"?>
<svg xmlns="http://www.w3.org/2000/svg" viewBox="0 0 512 512" width="512" height="512">
  <rect x="0" y="0" width="512" height="512" fill="white"/>
  <rect x="232" y="224" width="8" height="8" fill="#0000FF"/>
  <rect x="240" y="224" width="8" height="8" fill="#0000FF"/>
  <rect x="248" y="224" width="8" height="8" fill="#0000FF"/>
  <rect x="256" y="224" width="8" height="8" fill="#0000FF"/>
  <rect x="232" y="232" width="8" height="8" fill="#0000FF"/>
  <rect x="264" y="232" width="8" height="8" fill="#0000FF"/>
  <rect x="232" y="240" width="8" height="8" fill="#0000FF"/>
  <rect x="264" y="240" width="8" height="8" fill="#0000FF"/>
  <rect x="232" y="248" width="8" height="8" fill="#0000FF"/>
  <rect x="240" y="248" width="8" height="8" fill="#0000FF"/>
  <rect x="248" y="248" width="8" height="8" fill="#0000FF"/>
  <rect x="256" y="248" width="8" height="8" fill="#0000FF"/>
  <rect x="232" y="256" width="8" height="8" fill="#0000FF"/>
  <rect x="232" y="264" width="8" height="8" fill="#0000FF"/>
  <rect x="232" y="272" width="8" height="8" fill="#0000FF"/>
</svg>
