<svg viewBox="0 0 512 512">
<rect width="512" height="512" fill="#FFFFFF"/>
<rect x="96" y="96" width="40" height="40" fill="#ED0A3F"/>
<rect x="136" y="96" width="40" height="40" fill="#ED0A3F"/>
<rect x="176" y="96" width="40" height="40" fill="#ED0A3F"/>
<rect x="216" y="96" width="40" height="40" fill="#ED0A3F"/>
<rect x="256" y="96" width="40" height="40" fill="#ED0A3F"/>
<rect x="296" y="96" width="40" height="40" fill="#ED0A3F"/>
<rect x="336" y="96" width="40" height="40" fill="#ED0A3F"/>
<rect x="376" y="96" width="40" height="40" fill="#ED0A3F"/>
<rect x="216" y="136" width="40" height="40" fill="#ED0A3F"/>
<rect x="256" y="136" width="40" height="40" fill="#ED0A3F"/>
<rect x="216" y="176" width="40" height="40" fill="#ED0A3F"/>
<rect x="256" y="176" width="40" height="40" fill="#ED0A3F"/>
<rect x="216" y="216" width="40" height="40" fill="#ED0A3F"/>
<rect x="256" y="216" width="40" height="40" fill="#ED0A3F"/>
<rect x="216" y="256" width="40" height="40" fill="#ED0A3F"/>
<rect x="256" y="256" width="40" height="40" fill="#ED0A3F"/>
<rect x="216" y="296" width="40" height="40" fill="#ED0A3F"/>
<rect x="256" y="296" width="40" height="40" fill="#ED0A3F"/>
<rect x="96" y="336" width="40" height="40" fill="#ED0A3F"/>
<rect x="136" y="336" width="40" height="40" fill="#ED0A3F"/>
<rect x="176" y="336" width="40" height="40" fill="#ED0A3F"/>
<rect x="216" y="336" width="40" height="40" fill="#ED0A3F"/>
<rect x="256" y="336" width="40" height="40" fill="#ED0A3F"/>
<rect x="296" y="336" width="40" height="40" fill="#ED0A3F"/>
<rect x="336" y="336" width="40" height="40" fill="#ED0A3F"/>
<rect x="376" y="336" width="40" height="40" fill="#ED0A3F"/>
</svg>
